<?xml version="1.0" encoding="UTF-8"?>
<svg width="24px" height="24px" viewBox="0 0 24 24" version="1.1" xmlns="http://www.w3.org/2000/svg" xmlns:xlink="http://www.w3.org/1999/xlink">
    <g stroke="none" stroke-width="1" fill="none" fill-rule="evenodd">
        <g transform="translate(4.000000, 2.000000)" fill="#000000" fill-rule="nonzero">
            <path d="M13.5,0 L2.5,0 C1.12,0 0,1.12 0,2.5 L0,17.5 C0,18.88 1.12,20 2.5,20 L13.5,20 C14.88,20 16,18.88 16,17.5 L16,2.5 C16,1.12 14.88,0 13.5,0 Z M2.5,2 L13.5,2 C13.78,2 14,2.22 14,2.5 L14,17.5 C14,17.78 13.78,18 13.5,18 L2.5,18 C2.22,18 2,17.78 2,17.5 L2,2.5 C2,2.22 2.22,2 2.5,2 Z M12,14 L4,14 C3.45,14 3,14.45 3,15 C3,15.55 3.45,16 4,16 L12,16 C12.55,16 13,15.55 13,15 C13,14.45 12.55,14 12,14 Z M12,11 L4,11 C3.45,11 3,11.45 3,12 C3,12.55 3.45,13 4,13 L12,13 C12.55,13 13,12.55 13,12 C13,11.45 12.55,11 12,11 Z M12,8 L4,8 C3.45,8 3,8.45 3,9 C3,9.55 3.45,10 4,10 L12,10 C12.55,10 13,9.55 13,9 C13,8.45 12.55,8 12,8 Z M12,5 L4,5 C3.45,5 3,5.45 3,6 C3,6.55 3.45,7 4,7 L12,7 C12.55,7 13,6.55 13,6 C13,5.45 12.55,5 12,5 Z" opacity="0.6"></path>
        </g>
    </g>
</svg>
